<svg xmlns="http://www.w3.org/2000/svg" xml:space="preserve" width="640" height="640">
  <path d="M0-320.175c176.737 0 320.175 143.438 320.175 320.175 0 176.737-143.438 320.175-320.175 320.175-176.737 0-320.175-143.438-320.175-320.175 0-176.737 143.438-320.175 320.175-320.175z" style="stroke:#5267d6;stroke-width:0;stroke-dasharray:none;stroke-linecap:butt;stroke-dashoffset:0;stroke-linejoin:miter;stroke-miterlimit:4;fill:#f7faff;fill-rule:nonzero;opacity:1" transform="matrix(.95317 0 0 .95317 320 320)"/>
  <path d="M-11.103 5.123V-11.86h3.182l7.862 5.51h.118l7.862-5.51h3.182V5.123h-3.8V-7.11l-5.391 3.61V11.86h-3.8V-3.5l-5.415-3.61V5.123z" style="stroke:none;stroke-width:1;stroke-dasharray:none;stroke-linecap:butt;stroke-dashoffset:0;stroke-linejoin:miter;stroke-miterlimit:4;fill:#0a224a;fill-rule:nonzero;opacity:1" transform="matrix(11.21676 0 0 11.21676 320 436.149)"/>
  <path d="M97.993-185.218V46.995L-97.993 185.217V-49.531z" style="stroke:#f9b101;stroke-width:0;stroke-dasharray:none;stroke-linecap:butt;stroke-dashoffset:0;stroke-linejoin:miter;stroke-miterlimit:4;fill:#0a224a;fill-rule:nonzero;opacity:1" transform="matrix(-.61186 .01068 .01068 .61186 381.937 179.602)"/>
</svg>
