<?xml version="1.0" encoding="UTF-8" standalone="no" ?>
<!DOCTYPE svg PUBLIC "-//W3C//DTD SVG 1.1//EN" "http://www.w3.org/Graphics/SVG/1.1/DTD/svg11.dtd">
<svg xmlns="http://www.w3.org/2000/svg" xmlns:xlink="http://www.w3.org/1999/xlink" version="1.1" width="640" height="640" viewBox="0 0 640 640" xml:space="preserve">
<desc>Created with Fabric.js 5.3.0</desc>
<defs>
</defs>
<g transform="matrix(0.9531669574 0 0 0.9531669574 320 320)" id="53pV2vqFoVa66Qv5K2yyj"  >
<path style="stroke: rgb(82,103,214); stroke-width: 0; stroke-dasharray: none; stroke-linecap: butt; stroke-dashoffset: 0; stroke-linejoin: miter; stroke-miterlimit: 4; fill: rgb(247,250,255); fill-rule: nonzero; opacity: 1;"  transform=" translate(0, 0)" d="M 0 -320.17544 C 176.73684 -320.17544 320.17544 -176.73683999999997 320.17544 0 C 320.17544 176.73684 176.73683999999997 320.17544 0 320.17544 C -176.73684 320.17544 -320.17544 176.73683999999997 -320.17544 0 C -320.17544 -176.73684 -176.73683999999997 -320.17544 0 -320.17544 z" stroke-linecap="round" />
</g>
<g transform="matrix(11.2167574967 0 0 11.2167574967 320 436.1489061614)" id="bo2ptK9DdvoeNqI20XO1W"  >
<path style="stroke: none; stroke-width: 1; stroke-dasharray: none; stroke-linecap: butt; stroke-dashoffset: 0; stroke-linejoin: miter; stroke-miterlimit: 4; fill: rgb(10,34,74); fill-rule: nonzero; opacity: 1;"  transform=" translate(0, 0)" d="M -11.1031 5.12271 L -11.1031 -11.858590000000001 L -7.920599999999999 -11.858590000000001 L -0.05939999999999923 -6.3485900000000015 L 0.05940000000000077 -6.3485900000000015 L 7.920700000000001 -11.858590000000001 L 11.103100000000001 -11.858590000000001 L 11.103100000000001 5.12271 L 7.3031000000000015 5.12271 L 7.3031000000000015 -7.1085899999999995 L 1.911900000000001 -3.4985899999999996 L 1.911900000000001 11.85859 L -1.8880999999999988 11.85859 L -1.8880999999999988 -3.49859 L -7.303099999999999 -7.1085899999999995 L -7.303099999999999 5.12271 z" stroke-linecap="round" />
</g>
<g transform="matrix(-0.6118613864 0.0106800802 0.0106800802 0.6118613864 381.9365314303 179.6018007783)" id="ZIiuI3sFmDbGpAQiqtLk5"  >
<path style="stroke: rgb(249,177,1); stroke-width: 0; stroke-dasharray: none; stroke-linecap: butt; stroke-dashoffset: 0; stroke-linejoin: miter; stroke-miterlimit: 4; fill: rgb(10,34,74); fill-rule: nonzero; opacity: 1;"  transform=" translate(0, 0)" d="M 97.99343 -185.2175 L 97.99343 46.995270000000005 L -97.99342 185.2175 L -97.99342 -49.53166999999999 z" stroke-linecap="round" />
</g>
</svg>